<?xml version="1.0" encoding="UTF-8" standalone="no"?>
<!-- Created with Inkscape (http://www.inkscape.org/) -->

<svg
   version="1.1"
   id="svg1"
   width="683.20001"
   height="653.44"
   viewBox="0 0 683.20001 653.44"
   xmlns="http://www.w3.org/2000/svg"
   xmlns:svg="http://www.w3.org/2000/svg">
  <defs
     id="defs1" />
  <g
     id="g1">
    <g
       id="g2"
       transform="translate(5.3594256,-11.223466)">
      <path
         style="display:inline;fill:#f6f4f5"
         d="M 68.960001,529.00398 V 366.58759 L 195.84,293.33259 V 146.69026 L 335.89171,65.974035 476.46156,146.72 l 0.1784,146.78439 126.72,73.16334 0.1612,162.16395 -140.43841,81.08122 -127.02814,-73.30313 -126.96979,73.29785 z m 267.128739,-7.71628 126.99051,73.31837 126.84076,-73.2252 0.1392,-147.14087 -126.53923,-73.00515 -0.32,-146.82493 -127.04,-73.373429 L 208.9683,154.4 208.8001,301.15172 82.080101,374.31579 81.918741,521.18354 208.99048,594.5336 Z"
         id="path8" />
      <path
         style="display:inline;fill:#fefefe"
         d="M 272.77396,484.3086 209.44,447.74188 209.36275,374.51094 209.2855,301.28 272.18885,264.96 c 34.59684,-19.976 63.14511,-36.43461 63.4406,-36.5747 0.3954,-0.18744 17.26652,9.40413 63.89391,36.32497 l 63.35665,36.57966 0.0807,73.13928 0.0807,73.13927 -60.08069,34.68043 c -33.04437,19.07423 -61.60441,35.56827 -63.46673,36.65341 l -3.38605,1.973 z"
         id="path11" />
      <path
         style="display:inline;fill:#1387d9"
         d="m 336.59139,521.11714 c -10e-4,-0.18877 125.72229,-72.98203 126.46238,-73.22102 0.0145,-0.005 127.49295,72.93866 126.47808,73.50339 -1.69475,0.94305 -126.0362,72.8529 -126.57861,72.80783 -0.50626,-0.0421 -126.35966,-72.76767 -126.36185,-73.0902 z M 82.400005,374.34926 c 0.317511,-0.30779 84.015135,-49.07549 126.420085,-72.90926 0.2103,48.79906 0.12202,97.60021 0.11309,146.4 -42.22363,24.37724 -126.888016,73.28428 -126.888016,73.28428 z m 284.128575,72.85531 c -2.85431,-0.62099 -5.12859,-1.90533 -7.40511,-4.18185 -3.36666,-3.36666 -4.86709,-7.5734 -4.87791,-13.67621 -0.0138,-7.77057 2.66872,-13.41897 7.85425,-16.53831 4.45397,-2.67927 11.2505,-3.00001 16.0417,-0.75704 2.46847,1.15559 4.72053,3.33952 5.82595,5.6497 1.66414,3.47781 1.80686,3.20197 -2.12272,4.10275 l -3.44473,0.78964 c -0.92397,-2.2901 -2.28361,-4.01594 -4.48,-5.19247 -3.93139,-1.85396 -8.91142,-0.16559 -10.86128,3.68226 -1.16495,2.29893 -1.56779,4.99758 -1.38027,9.2466 0.20419,4.62692 0.95972,6.88538 2.97884,8.9045 6.2294,5.57708 11.15307,0.4723 13.86136,-5.03841 0.11074,-0.11235 1.64135,0.25602 3.40135,0.8186 3.05065,0.97514 3.19718,1.06313 3.13964,1.88511 -0.10334,1.47617 -2.03742,4.95175 -3.68951,6.6301 -0.86881,0.88263 -2.30564,1.97266 -3.19296,2.4223 -3.18745,1.6152 -7.73474,2.10423 -11.6486,1.25273 z M 255.36,416.96 H 244.8 v -5.76 h 28.48 v 5.74453 l -10.72,0.1754 -0.1664,29.92 H 255.36 Z m 22.72,-5.81554 c 0,0 17.71691,-1.7008 23.82145,2.42321 1.80857,1.22181 2.90654,3.64305 3.3818,6.27233 0.96997,5.36618 -1.25813,10.20726 -5.69841,12.3812 -1.76038,0.86188 -2.04523,0.89918 -8.06483,1.05612 l -6.24,0.16268 -0.1728,13.6 H 278.08 Z m 16.97495,15.66912 c 3.37051,-1.44496 4.1335,-5.8326 1.42743,-8.20856 -1.36253,-1.19632 -2.20942,-1.36392 -7.23413,-1.43158 l -3.96824,-0.0534 -0.1762,10.48256 4.40812,-0.15121 c 2.93181,-0.10056 4.78823,-0.31416 5.54307,-0.63777 z m 9.90506,13.50642 h 6.72 v 6.72 h -6.72 z m 14.08,-29.12 h 7.36 v 14.08 h 14.4 V 411.2 h 7.04 v 35.84 h -7.04 v -15.68 h -14.4 v 15.68 h -7.36 z m 72.64,0 h 10.77809 l 3.12572,11.76 c 1.71914,6.468 3.22092,11.93486 3.33728,12.14858 0.11636,0.21371 1.64722,-5.07829 3.40191,-11.76 L 415.51336,411.2 h 10.72665 v 35.84 h -6.4 l -0.27531,-27.664 c -0.002,-0.20529 -6.21291,24.27402 -7.10936,27.664 h -6.93687 l -7.05954,-28 -0.059,28 h -6.72 z m -55.68,-183.46278 V 81.225284 l 1.36,0.763429 c 6.08137,3.41375 125.69752,72.161927 125.84271,72.439217 0.18291,0.3493 0.0483,58.59636 -0.0491,146.80253 z"
         id="path5" />
      <path
         style="display:inline;fill:#022a90"
         d="m 82.247602,521.13073 c 0,0 125.833668,-72.92207 126.768738,-72.95299 0.42927,-0.0142 127.07709,72.83212 126.87906,72.97932 -0.64567,0.47994 -126.67194,73.07937 -126.84537,73.07128 z M 463.20001,447.73461 463.03443,301.16637 590.08,374.55481 590,520.94674 c -0.13734,0.51481 -126.79999,-73.21213 -126.79999,-73.21213 z M 251.84,299.52 c 18.01829,0.91565 36.54142,-1.8535 54.40001,1.27163 6.14242,1.26179 11.51165,4.87404 15.00242,10.09317 2.78753,4.16772 4.0825,8.97461 3.73701,13.87178 -1.01144,14.33686 -12.64893,18.76339 -12.65084,19.24299 -0.002,0.63241 12.22636,2.71698 16.30434,15.84 1.0453,3.36379 1.21561,8.72464 0.40165,12.64321 -2.18287,10.50884 -9.09492,18.04379 -18.79458,20.4883 -19.30434,2.14259 -38.96482,1.2646 -58.40001,1.26875 z m 46.43449,78.72428 c 3.90532,-0.38006 6.21972,-1.24772 8.28774,-3.10705 2.98597,-2.68464 4.29564,-6.85266 3.55757,-11.32189 -0.49664,-3.00724 -1.54304,-4.97023 -3.7006,-6.94211 -10.01355,-6.22865 -24.40881,-3.83734 -36.0192,-3.99761 V 378.56 Z m -0.63254,-41.42516 c 4.05457,-0.85941 6.88436,-2.92835 8.34202,-6.09912 1.06851,-2.32425 1.05317,-6.95897 -0.031,-9.36942 -0.92727,-2.0616 -3.19277,-4.17238 -5.34385,-4.97889 C 290.7072,314.63379 280.44706,315.21578 270.4,315.2 v 22.08 l 12.56001,-0.006 c 9.55176,-0.004 13.06822,-0.11328 14.68194,-0.45532 z M 345.92001,299.52 h 18.56 l 0.26757,41.92 37.97243,-41.87262 25.25325,-0.0474 -35.08667,37.06621 36.8514,57.65379 h -24.19824 l -25.65546,-44 -15.38675,15.68 -0.018,28.32 h -18.56 z M 209.3099,154.4 336.00138,81.323226 335.83998,227.89746 209.67997,300.70243 Z"
         id="path2" />
    </g>
  </g>
</svg>
